<mxfile host="app.diagrams.net" modified="2023-10-12T02:01:44.264Z" agent="Mozilla/5.0 (Macintosh; Intel Mac OS X 10_15_7) AppleWebKit/537.36 (KHTML, like Gecko) Chrome/117.0.0.0 Safari/537.36" etag="khoorRnGMMZkUMTJjz2J" version="22.0.4" type="device">
  <diagram name="Page-1" id="2YBvvXClWsGukQMizWep">
    <mxGraphModel dx="954" dy="523" grid="1" gridSize="10" guides="1" tooltips="1" connect="1" arrows="1" fold="1" page="1" pageScale="1" pageWidth="850" pageHeight="1100" math="0" shadow="0">
      <root>
        <mxCell id="0" />
        <mxCell id="1" parent="0" />
        <mxCell id="aM9ryv3xv72pqoxQDRHE-5" value=":System" style="shape=umlLifeline;perimeter=lifelinePerimeter;whiteSpace=wrap;html=1;container=0;dropTarget=0;collapsible=0;recursiveResize=0;outlineConnect=0;portConstraint=eastwest;newEdgeStyle={&quot;edgeStyle&quot;:&quot;elbowEdgeStyle&quot;,&quot;elbow&quot;:&quot;vertical&quot;,&quot;curved&quot;:0,&quot;rounded&quot;:0};" parent="1" vertex="1">
          <mxGeometry x="470" y="180" width="100" height="550" as="geometry" />
        </mxCell>
        <mxCell id="y5gPMH1k5wEBWP9fE6Nm-3" value=":Player" style="shape=umlActor;verticalLabelPosition=bottom;verticalAlign=top;html=1;outlineConnect=0;" parent="1" vertex="1">
          <mxGeometry x="320" y="130" width="30" height="60" as="geometry" />
        </mxCell>
        <mxCell id="y5gPMH1k5wEBWP9fE6Nm-4" value="" style="endArrow=none;dashed=1;html=1;dashPattern=1 3;strokeWidth=2;rounded=0;" parent="1" edge="1">
          <mxGeometry width="50" height="50" relative="1" as="geometry">
            <mxPoint x="330" y="730" as="sourcePoint" />
            <mxPoint x="335" y="220" as="targetPoint" />
          </mxGeometry>
        </mxCell>
        <mxCell id="y5gPMH1k5wEBWP9fE6Nm-6" value="Loop" style="shape=umlFrame;whiteSpace=wrap;html=1;pointerEvents=0;" parent="1" vertex="1">
          <mxGeometry x="220" y="240" width="380" height="480" as="geometry" />
        </mxCell>
        <mxCell id="y5gPMH1k5wEBWP9fE6Nm-9" value="&lt;font style=&quot;font-size: 10px;&quot;&gt;[while game &lt;br&gt;is running]&lt;/font&gt;" style="text;html=1;align=center;verticalAlign=middle;resizable=0;points=[];autosize=1;strokeColor=none;fillColor=none;rotation=0;" parent="1" vertex="1">
          <mxGeometry x="210" y="270" width="80" height="40" as="geometry" />
        </mxCell>
        <mxCell id="y5gPMH1k5wEBWP9fE6Nm-11" value="opt" style="shape=umlFrame;whiteSpace=wrap;html=1;pointerEvents=0;width=50;height=30;" parent="1" vertex="1">
          <mxGeometry x="250" y="310" width="310" height="390" as="geometry" />
        </mxCell>
        <mxCell id="y5gPMH1k5wEBWP9fE6Nm-12" value="&lt;font style=&quot;font-size: 10px;&quot;&gt;[if enemy&lt;br&gt;encountered]&lt;br&gt;&lt;/font&gt;" style="text;html=1;align=center;verticalAlign=middle;resizable=0;points=[];autosize=1;strokeColor=none;fillColor=none;" parent="1" vertex="1">
          <mxGeometry x="250" y="350" width="80" height="40" as="geometry" />
        </mxCell>
        <mxCell id="y5gPMH1k5wEBWP9fE6Nm-15" value="return if player won or lost battle" style="html=1;verticalAlign=bottom;endArrow=open;dashed=1;endSize=8;curved=0;rounded=0;" parent="1" edge="1">
          <mxGeometry relative="1" as="geometry">
            <mxPoint x="517.5" y="410" as="sourcePoint" />
            <mxPoint x="333" y="410" as="targetPoint" />
          </mxGeometry>
        </mxCell>
        <mxCell id="y5gPMH1k5wEBWP9fE6Nm-16" value="battle initiated" style="html=1;verticalAlign=bottom;endArrow=open;dashed=1;endSize=8;curved=0;rounded=0;" parent="1" edge="1">
          <mxGeometry relative="1" as="geometry">
            <mxPoint x="518" y="369.5" as="sourcePoint" />
            <mxPoint x="333" y="369.5" as="targetPoint" />
          </mxGeometry>
        </mxCell>
        <mxCell id="iZZ1mux4zSE9OPQuQkQ0-2" value="alt" style="shape=umlFrame;whiteSpace=wrap;html=1;pointerEvents=0;" vertex="1" parent="1">
          <mxGeometry x="255" y="440" width="300" height="240" as="geometry" />
        </mxCell>
        <mxCell id="iZZ1mux4zSE9OPQuQkQ0-3" value="" style="endArrow=none;dashed=1;html=1;dashPattern=1 3;strokeWidth=2;rounded=0;entryX=1.013;entryY=0.495;entryDx=0;entryDy=0;entryPerimeter=0;" edge="1" parent="1">
          <mxGeometry width="50" height="50" relative="1" as="geometry">
            <mxPoint x="255" y="521" as="sourcePoint" />
            <mxPoint x="558.9000000000001" y="520" as="targetPoint" />
            <Array as="points" />
          </mxGeometry>
        </mxCell>
        <mxCell id="iZZ1mux4zSE9OPQuQkQ0-4" value="[if lost&lt;br&gt;battle]" style="text;html=1;align=center;verticalAlign=middle;resizable=0;points=[];autosize=1;strokeColor=none;fillColor=none;" vertex="1" parent="1">
          <mxGeometry x="255" y="470" width="60" height="40" as="geometry" />
        </mxCell>
        <mxCell id="iZZ1mux4zSE9OPQuQkQ0-6" value="battleEnemy(enemy)" style="html=1;verticalAlign=bottom;endArrow=block;curved=0;rounded=0;" edge="1" parent="1" target="aM9ryv3xv72pqoxQDRHE-5">
          <mxGeometry width="80" relative="1" as="geometry">
            <mxPoint x="330" y="340" as="sourcePoint" />
            <mxPoint x="460" y="340" as="targetPoint" />
          </mxGeometry>
        </mxCell>
        <mxCell id="iZZ1mux4zSE9OPQuQkQ0-10" value="lose the game" style="html=1;verticalAlign=bottom;endArrow=block;curved=0;rounded=0;" edge="1" parent="1" target="aM9ryv3xv72pqoxQDRHE-5">
          <mxGeometry width="80" relative="1" as="geometry">
            <mxPoint x="330" y="469" as="sourcePoint" />
            <mxPoint x="410" y="469" as="targetPoint" />
          </mxGeometry>
        </mxCell>
        <mxCell id="iZZ1mux4zSE9OPQuQkQ0-11" value="return lost the game" style="html=1;verticalAlign=bottom;endArrow=open;dashed=1;endSize=8;curved=0;rounded=0;" edge="1" parent="1">
          <mxGeometry relative="1" as="geometry">
            <mxPoint x="520" y="500" as="sourcePoint" />
            <mxPoint x="330" y="500" as="targetPoint" />
          </mxGeometry>
        </mxCell>
        <mxCell id="iZZ1mux4zSE9OPQuQkQ0-12" value="[if won&lt;br&gt;battle]" style="text;html=1;align=center;verticalAlign=middle;resizable=0;points=[];autosize=1;strokeColor=none;fillColor=none;" vertex="1" parent="1">
          <mxGeometry x="255" y="550" width="60" height="40" as="geometry" />
        </mxCell>
        <mxCell id="iZZ1mux4zSE9OPQuQkQ0-13" value="lootEnemy(enemy)" style="html=1;verticalAlign=bottom;endArrow=block;curved=0;rounded=0;" edge="1" parent="1" target="aM9ryv3xv72pqoxQDRHE-5">
          <mxGeometry x="0.0026" width="80" relative="1" as="geometry">
            <mxPoint x="330" y="550" as="sourcePoint" />
            <mxPoint x="410" y="550" as="targetPoint" />
            <mxPoint as="offset" />
          </mxGeometry>
        </mxCell>
        <mxCell id="iZZ1mux4zSE9OPQuQkQ0-14" value="move loot from enemy to player&lt;br&gt;inventory&lt;br&gt;" style="html=1;verticalAlign=bottom;endArrow=open;dashed=1;endSize=8;curved=0;rounded=0;" edge="1" parent="1">
          <mxGeometry relative="1" as="geometry">
            <mxPoint x="519.5" y="590" as="sourcePoint" />
            <mxPoint x="330" y="590" as="targetPoint" />
          </mxGeometry>
        </mxCell>
        <mxCell id="iZZ1mux4zSE9OPQuQkQ0-15" value="loot gained(item, amount)" style="html=1;verticalAlign=bottom;endArrow=open;dashed=1;endSize=8;curved=0;rounded=0;" edge="1" parent="1" source="aM9ryv3xv72pqoxQDRHE-5">
          <mxGeometry relative="1" as="geometry">
            <mxPoint x="460" y="630" as="sourcePoint" />
            <mxPoint x="330" y="630" as="targetPoint" />
          </mxGeometry>
        </mxCell>
        <mxCell id="iZZ1mux4zSE9OPQuQkQ0-16" value="return that enemy was looted" style="html=1;verticalAlign=bottom;endArrow=open;dashed=1;endSize=8;curved=0;rounded=0;" edge="1" parent="1">
          <mxGeometry relative="1" as="geometry">
            <mxPoint x="520" y="660" as="sourcePoint" />
            <mxPoint x="330" y="660" as="targetPoint" />
          </mxGeometry>
        </mxCell>
      </root>
    </mxGraphModel>
  </diagram>
</mxfile>
